{
  "accessors": [
    {
      "bufferView": 2,
      "componentType": 5126,
      "count": 32235,
      "max": [
        42.48521041870117,
        51.16841506958008,
        42.99563217163086
      ],
      "min": [
        -42.58946228027344,
        -51.274757385253906,
        -43.20077896118164
      ],
      "type": "VEC3"
    },
    {
      "bufferView": 2,
      "byteOffset": 386820,
      "componentType": 5126,
      "count": 32235,
      "max": [
        1.0,
        1.0,
        0.9999744892120361
      ],
      "min": [
        -0.9999998807907104,
        -0.9999926686286926,
        -0.9999993443489075
      ],
      "type": "VEC3"
    },
    {
      "bufferView": 3,
      "componentType": 5126,
      "count": 32235,
      "max": [
        1.0,
        0.9999948740005493,
        0.9999983906745911,
        1.0
      ],
      "min": [
        -1.0,
        -1.0,
        -1.0,
        -1.0
      ],
      "type": "VEC4"
    },
    {
      "bufferView": 1,
      "componentType": 5126,
      "count": 32235,
      "max": [
        0.9988523721694946,
        0.9996742010116577
      ],
      "min": [
        0.000325792032526806,
        0.0032224655151367188
      ],
      "type": "VEC2"
    },
    {
      "bufferView": 0,
      "componentType": 5125,
      "count": 149136,
      "type": "SCALAR"
    },
    {
      "bufferView": 2,
      "byteOffset": 773640,
      "componentType": 5126,
      "count": 3764,
      "max": [
        39.873294830322266,
        17.212440490722656,
        41.903202056884766
      ],
      "min": [
        -39.873294830322266,
        -17.212440490722656,
        -41.903202056884766
      ],
      "type": "VEC3"
    },
    {
      "bufferView": 2,
      "byteOffset": 818808,
      "componentType": 5126,
      "count": 3764,
      "max": [
        1.0,
        1.0,
        1.0
      ],
      "min": [
        -1.0,
        -1.0,
        -1.0
      ],
      "type": "VEC3"
    },
    {
      "bufferView": 3,
      "byteOffset": 515760,
      "componentType": 5126,
      "count": 3764,
      "max": [
        1.0,
        1.0,
        1.0,
        1.0
      ],
      "min": [
        -1.0,
        -1.0,
        -1.0,
        -1.0
      ],
      "type": "VEC4"
    },
    {
      "bufferView": 1,
      "byteOffset": 257880,
      "componentType": 5126,
      "count": 3764,
      "max": [
        0.9990243911743164,
        0.9996742010116577
      ],
      "min": [
        0.000325792032526806,
        0.0034018754959106445
      ],
      "type": "VEC2"
    },
    {
      "bufferView": 0,
      "byteOffset": 596544,
      "componentType": 5125,
      "count": 14640,
      "type": "SCALAR"
    }
  ],
  "asset": {
    "extras": {
      "author": "Mehdi Shahsavan (https://sketchfab.com/ahmagh2e)",
      "license": "CC-BY-4.0 (http://creativecommons.org/licenses/by/4.0/)",
      "source": "https://sketchfab.com/3d-models/chairmans-chair--20mb-02152d9f5083418399fbb5f64b129bf6",
      "title": "Chairman's Chair_ 20MB"
    },
    "generator": "Sketchfab-16.16.0",
    "version": "2.0"
  },
  "bufferViews": [
    {
      "buffer": 0,
      "byteLength": 655104,
      "name": "floatBufferViews",
      "target": 34963
    },
    {
      "buffer": 0,
      "byteLength": 287992,
      "byteOffset": 655104,
      "byteStride": 8,
      "name": "floatBufferViews",
      "target": 34962
    },
    {
      "buffer": 0,
      "byteLength": 863976,
      "byteOffset": 943096,
      "byteStride": 12,
      "name": "floatBufferViews",
      "target": 34962
    },
    {
      "buffer": 0,
      "byteLength": 575984,
      "byteOffset": 1807072,
      "byteStride": 16,
      "name": "floatBufferViews",
      "target": 34962
    }
  ],
  "buffers": [
    {
      "byteLength": 2383056,
      "uri": "scene.bin"
    }
  ],
  "images": [
    {
      "uri": "textures/Scene_-_Root_baseColor.png"
    },
    {
      "uri": "textures/Scene_-_Root_metallicRoughness.png"
    },
    {
      "uri": "textures/Scene_-_Root_normal.png"
    }
  ],
  "materials": [
    {
      "doubleSided": true,
      "name": "Scene_-_Root",
      "normalTexture": {
        "index": 2
      },
      "pbrMetallicRoughness": {
        "baseColorTexture": {
          "index": 0
        },
        "metallicRoughnessTexture": {
          "index": 1
        }
      }
    }
  ],
  "meshes": [
    {
      "name": "Remesh__0",
      "primitives": [
        {
          "attributes": {
            "NORMAL": 1,
            "POSITION": 0,
            "TANGENT": 2,
            "TEXCOORD_0": 3
          },
          "indices": 4,
          "material": 0,
          "mode": 4
        }
      ]
    },
    {
      "name": "scene__0",
      "primitives": [
        {
          "attributes": {
            "NORMAL": 6,
            "POSITION": 5,
            "TANGENT": 7,
            "TEXCOORD_0": 8
          },
          "indices": 9,
          "material": 0,
          "mode": 4
        }
      ]
    }
  ],
  "nodes": [
    {
      "children": [
        1
      ],
      "matrix": [
        1.0,
        0.0,
        0.0,
        0.0,
        0.0,
        2.220446049250313e-16,
        -1.0,
        0.0,
        0.0,
        1.0,
        2.220446049250313e-16,
        0.0,
        0.0,
        0.0,
        0.0,
        1.0
      ],
      "name": "Sketchfab_model"
    },
    {
      "children": [
        2
      ],
      "matrix": [
        1.0,
        0.0,
        0.0,
        0.0,
        0.0,
        0.0,
        1.0,
        0.0,
        0.0,
        -1.0,
        0.0,
        0.0,
        0.0,
        0.0,
        0.0,
        1.0
      ],
      "name": "8ec73cd50cec4567a1b4b6074bf192d5.fbx"
    },
    {
      "children": [
        3,
        5
      ],
      "name": "RootNode"
    },
    {
      "children": [
        4
      ],
      "matrix": [
        1.0,
        0.0,
        0.0,
        0.0,
        0.0,
        1.0,
        0.0,
        0.0,
        0.0,
        0.0,
        1.0,
        0.0,
        -1.7840098142623901,
        82.55178833007813,
        -2.641923189163208,
        1.0
      ],
      "name": "Remesh"
    },
    {
      "mesh": 0,
      "name": "Remesh__0"
    },
    {
      "children": [
        6
      ],
      "matrix": [
        1.0,
        0.0,
        0.0,
        0.0,
        0.0,
        1.0,
        0.0,
        0.0,
        0.0,
        0.0,
        1.0,
        0.0,
        1.7840098142623901,
        17.212440490722656,
        2.641923189163208,
        1.0
      ],
      "name": "scene"
    },
    {
      "mesh": 1,
      "name": "scene__0"
    }
  ],
  "samplers": [
    {
      "magFilter": 9729,
      "minFilter": 9987,
      "wrapS": 10497,
      "wrapT": 10497
    }
  ],
  "scene": 0,
  "scenes": [
    {
      "name": "Sketchfab_Scene",
      "nodes": [
        0
      ]
    }
  ],
  "textures": [
    {
      "sampler": 0,
      "source": 0
    },
    {
      "sampler": 0,
      "source": 1
    },
    {
      "sampler": 0,
      "source": 2
    }
  ]
}
